<mxfile host="app.diagrams.net" modified="2022-05-15T16:11:08.328Z" agent="5.0 (Windows NT 10.0; Win64; x64) AppleWebKit/537.36 (KHTML, like Gecko) Chrome/101.0.4951.64 Safari/537.36 Edg/101.0.1210.47" etag="LTpQd3nK7WD_vTkFgOgD" version="18.0.5" type="github" pages="2">
  <diagram id="achlds9I8o8SKGrfx_QA" name="Modelo de Dominio">
    <mxGraphModel dx="734" dy="468" grid="1" gridSize="10" guides="1" tooltips="1" connect="1" arrows="1" fold="1" page="1" pageScale="1" pageWidth="850" pageHeight="1100" math="0" shadow="0">
      <root>
        <mxCell id="0" />
        <mxCell id="1" parent="0" />
        <mxCell id="lbNHKamhX4QrWtnnEHDB-1" value="SalesLineItem" style="swimlane;fontStyle=0;childLayout=stackLayout;horizontal=1;startSize=26;fillColor=none;horizontalStack=0;resizeParent=1;resizeParentMax=0;resizeLast=0;collapsible=1;marginBottom=0;" parent="1" vertex="1">
          <mxGeometry x="156" y="240" width="140" height="52" as="geometry" />
        </mxCell>
        <mxCell id="lbNHKamhX4QrWtnnEHDB-2" value="- quantity" style="text;strokeColor=none;fillColor=none;align=left;verticalAlign=top;spacingLeft=4;spacingRight=4;overflow=hidden;rotatable=0;points=[[0,0.5],[1,0.5]];portConstraint=eastwest;" parent="lbNHKamhX4QrWtnnEHDB-1" vertex="1">
          <mxGeometry y="26" width="140" height="26" as="geometry" />
        </mxCell>
        <mxCell id="lbNHKamhX4QrWtnnEHDB-9" value="Contained-id" style="edgeStyle=orthogonalEdgeStyle;rounded=0;orthogonalLoop=1;jettySize=auto;html=1;exitX=0.5;exitY=0;exitDx=0;exitDy=0;entryX=0.452;entryY=1;entryDx=0;entryDy=0;entryPerimeter=0;endArrow=none;endFill=0;" parent="1" source="lbNHKamhX4QrWtnnEHDB-5" target="lbNHKamhX4QrWtnnEHDB-2" edge="1">
          <mxGeometry relative="1" as="geometry" />
        </mxCell>
        <mxCell id="acma-vFN0LEIhaqFniBH-5" value="Captured-on" style="edgeStyle=orthogonalEdgeStyle;rounded=0;orthogonalLoop=1;jettySize=auto;html=1;entryX=0;entryY=0.013;entryDx=0;entryDy=0;entryPerimeter=0;endArrow=none;endFill=0;" parent="1" source="lbNHKamhX4QrWtnnEHDB-5" target="acma-vFN0LEIhaqFniBH-2" edge="1">
          <mxGeometry relative="1" as="geometry">
            <Array as="points">
              <mxPoint x="439" y="390" />
              <mxPoint x="439" y="390" />
            </Array>
          </mxGeometry>
        </mxCell>
        <mxCell id="lbNHKamhX4QrWtnnEHDB-5" value="Sale" style="swimlane;fontStyle=0;childLayout=stackLayout;horizontal=1;startSize=26;fillColor=none;horizontalStack=0;resizeParent=1;resizeParentMax=0;resizeLast=0;collapsible=1;marginBottom=0;" parent="1" vertex="1">
          <mxGeometry x="149" y="350" width="140" height="78" as="geometry" />
        </mxCell>
        <mxCell id="lbNHKamhX4QrWtnnEHDB-6" value="- dateTime" style="text;strokeColor=none;fillColor=none;align=left;verticalAlign=top;spacingLeft=4;spacingRight=4;overflow=hidden;rotatable=0;points=[[0,0.5],[1,0.5]];portConstraint=eastwest;" parent="lbNHKamhX4QrWtnnEHDB-5" vertex="1">
          <mxGeometry y="26" width="140" height="26" as="geometry" />
        </mxCell>
        <mxCell id="lbNHKamhX4QrWtnnEHDB-7" value="- /total" style="text;strokeColor=none;fillColor=none;align=left;verticalAlign=top;spacingLeft=4;spacingRight=4;overflow=hidden;rotatable=0;points=[[0,0.5],[1,0.5]];portConstraint=eastwest;" parent="lbNHKamhX4QrWtnnEHDB-5" vertex="1">
          <mxGeometry y="52" width="140" height="26" as="geometry" />
        </mxCell>
        <mxCell id="lbNHKamhX4QrWtnnEHDB-14" style="edgeStyle=orthogonalEdgeStyle;rounded=0;orthogonalLoop=1;jettySize=auto;html=1;exitX=0.5;exitY=0;exitDx=0;exitDy=0;endArrow=none;endFill=0;endSize=5;startArrow=none;startFill=0;" parent="1" source="lbNHKamhX4QrWtnnEHDB-10" target="lbNHKamhX4QrWtnnEHDB-7" edge="1">
          <mxGeometry relative="1" as="geometry">
            <mxPoint x="189" y="440" as="targetPoint" />
            <Array as="points">
              <mxPoint x="99" y="475" />
              <mxPoint x="189" y="475" />
            </Array>
          </mxGeometry>
        </mxCell>
        <mxCell id="lbNHKamhX4QrWtnnEHDB-15" value="Paid-by" style="edgeLabel;html=1;align=center;verticalAlign=middle;resizable=0;points=[];" parent="lbNHKamhX4QrWtnnEHDB-14" vertex="1" connectable="0">
          <mxGeometry x="0.3074" y="-2" relative="1" as="geometry">
            <mxPoint x="-40" as="offset" />
          </mxGeometry>
        </mxCell>
        <mxCell id="lbNHKamhX4QrWtnnEHDB-10" value="CashPayment" style="swimlane;fontStyle=0;childLayout=stackLayout;horizontal=1;startSize=26;fillColor=none;horizontalStack=0;resizeParent=1;resizeParentMax=0;resizeLast=0;collapsible=1;marginBottom=0;" parent="1" vertex="1">
          <mxGeometry x="29" y="510" width="140" height="52" as="geometry" />
        </mxCell>
        <mxCell id="lbNHKamhX4QrWtnnEHDB-11" value="- amountTendered" style="text;strokeColor=none;fillColor=none;align=left;verticalAlign=top;spacingLeft=4;spacingRight=4;overflow=hidden;rotatable=0;points=[[0,0.5],[1,0.5]];portConstraint=eastwest;" parent="lbNHKamhX4QrWtnnEHDB-10" vertex="1">
          <mxGeometry y="26" width="140" height="26" as="geometry" />
        </mxCell>
        <mxCell id="lbNHKamhX4QrWtnnEHDB-16" value="1" style="text;html=1;align=center;verticalAlign=middle;resizable=0;points=[];autosize=1;strokeColor=none;fillColor=none;" parent="1" vertex="1">
          <mxGeometry x="189" y="428" width="20" height="20" as="geometry" />
        </mxCell>
        <mxCell id="lbNHKamhX4QrWtnnEHDB-17" value="1" style="text;html=1;align=center;verticalAlign=middle;resizable=0;points=[];autosize=1;strokeColor=none;fillColor=none;" parent="1" vertex="1">
          <mxGeometry x="99" y="490" width="20" height="20" as="geometry" />
        </mxCell>
        <mxCell id="lbNHKamhX4QrWtnnEHDB-18" value="1..*" style="text;html=1;align=center;verticalAlign=middle;resizable=0;points=[];autosize=1;strokeColor=none;fillColor=none;" parent="1" vertex="1">
          <mxGeometry x="224" y="292" width="30" height="20" as="geometry" />
        </mxCell>
        <mxCell id="lbNHKamhX4QrWtnnEHDB-22" style="rounded=0;orthogonalLoop=1;jettySize=auto;html=1;exitX=0.5;exitY=0;exitDx=0;exitDy=0;startArrow=none;startFill=0;endArrow=none;endFill=0;endSize=5;" parent="1" source="lbNHKamhX4QrWtnnEHDB-21" target="lbNHKamhX4QrWtnnEHDB-7" edge="1">
          <mxGeometry relative="1" as="geometry">
            <Array as="points">
              <mxPoint x="294" y="470" />
              <mxPoint x="219" y="470" />
            </Array>
          </mxGeometry>
        </mxCell>
        <mxCell id="lbNHKamhX4QrWtnnEHDB-23" value="Is-for" style="edgeLabel;html=1;align=center;verticalAlign=middle;resizable=0;points=[];" parent="lbNHKamhX4QrWtnnEHDB-22" vertex="1" connectable="0">
          <mxGeometry x="-0.1908" y="1" relative="1" as="geometry">
            <mxPoint x="-18" y="-1" as="offset" />
          </mxGeometry>
        </mxCell>
        <mxCell id="lbNHKamhX4QrWtnnEHDB-21" value="Customer" style="html=1;" parent="1" vertex="1">
          <mxGeometry x="239" y="512" width="110" height="50" as="geometry" />
        </mxCell>
        <mxCell id="lbNHKamhX4QrWtnnEHDB-24" value="1" style="text;html=1;align=center;verticalAlign=middle;resizable=0;points=[];autosize=1;strokeColor=none;fillColor=none;" parent="1" vertex="1">
          <mxGeometry x="219" y="430" width="20" height="20" as="geometry" />
        </mxCell>
        <mxCell id="lbNHKamhX4QrWtnnEHDB-25" value="1" style="text;html=1;align=center;verticalAlign=middle;resizable=0;points=[];autosize=1;strokeColor=none;fillColor=none;" parent="1" vertex="1">
          <mxGeometry x="299" y="490" width="20" height="20" as="geometry" />
        </mxCell>
        <mxCell id="9fLlZYd4D2RIX8E6NWbn-13" value="Houses" style="edgeStyle=orthogonalEdgeStyle;rounded=0;orthogonalLoop=1;jettySize=auto;html=1;entryX=0.502;entryY=1.072;entryDx=0;entryDy=0;entryPerimeter=0;endArrow=none;endFill=0;" parent="1" source="acma-vFN0LEIhaqFniBH-1" target="9fLlZYd4D2RIX8E6NWbn-10" edge="1">
          <mxGeometry relative="1" as="geometry">
            <Array as="points">
              <mxPoint x="539" y="270" />
              <mxPoint x="539" y="270" />
            </Array>
          </mxGeometry>
        </mxCell>
        <mxCell id="acma-vFN0LEIhaqFniBH-1" value="Register" style="swimlane;fontStyle=0;childLayout=stackLayout;horizontal=1;startSize=26;fillColor=none;horizontalStack=0;resizeParent=1;resizeParentMax=0;resizeLast=0;collapsible=1;marginBottom=0;" parent="1" vertex="1">
          <mxGeometry x="469" y="363" width="140" height="52" as="geometry" />
        </mxCell>
        <mxCell id="acma-vFN0LEIhaqFniBH-2" value="- id" style="text;strokeColor=none;fillColor=none;align=left;verticalAlign=top;spacingLeft=4;spacingRight=4;overflow=hidden;rotatable=0;points=[[0,0.5],[1,0.5]];portConstraint=eastwest;" parent="acma-vFN0LEIhaqFniBH-1" vertex="1">
          <mxGeometry y="26" width="140" height="26" as="geometry" />
        </mxCell>
        <mxCell id="acma-vFN0LEIhaqFniBH-6" value="1" style="text;html=1;align=center;verticalAlign=middle;resizable=0;points=[];autosize=1;strokeColor=none;fillColor=none;" parent="1" vertex="1">
          <mxGeometry x="449" y="390" width="20" height="20" as="geometry" />
        </mxCell>
        <mxCell id="acma-vFN0LEIhaqFniBH-7" value="0..1" style="text;html=1;align=center;verticalAlign=middle;resizable=0;points=[];autosize=1;strokeColor=none;fillColor=none;" parent="1" vertex="1">
          <mxGeometry x="289" y="390" width="40" height="20" as="geometry" />
        </mxCell>
        <mxCell id="9fLlZYd4D2RIX8E6NWbn-7" value="Store" style="swimlane;fontStyle=0;childLayout=stackLayout;horizontal=1;startSize=26;fillColor=none;horizontalStack=0;resizeParent=1;resizeParentMax=0;resizeLast=0;collapsible=1;marginBottom=0;" parent="1" vertex="1">
          <mxGeometry x="469" y="155" width="140" height="78" as="geometry" />
        </mxCell>
        <mxCell id="9fLlZYd4D2RIX8E6NWbn-8" value="- address" style="text;strokeColor=none;fillColor=none;align=left;verticalAlign=top;spacingLeft=4;spacingRight=4;overflow=hidden;rotatable=0;points=[[0,0.5],[1,0.5]];portConstraint=eastwest;" parent="9fLlZYd4D2RIX8E6NWbn-7" vertex="1">
          <mxGeometry y="26" width="140" height="26" as="geometry" />
        </mxCell>
        <mxCell id="9fLlZYd4D2RIX8E6NWbn-10" value="- name" style="text;strokeColor=none;fillColor=none;align=left;verticalAlign=top;spacingLeft=4;spacingRight=4;overflow=hidden;rotatable=0;points=[[0,0.5],[1,0.5]];portConstraint=eastwest;" parent="9fLlZYd4D2RIX8E6NWbn-7" vertex="1">
          <mxGeometry y="52" width="140" height="26" as="geometry" />
        </mxCell>
        <mxCell id="9fLlZYd4D2RIX8E6NWbn-14" value="1" style="text;html=1;align=center;verticalAlign=middle;resizable=0;points=[];autosize=1;strokeColor=none;fillColor=none;" parent="1" vertex="1">
          <mxGeometry x="539" y="233" width="20" height="20" as="geometry" />
        </mxCell>
        <mxCell id="9fLlZYd4D2RIX8E6NWbn-15" value="1..*" style="text;html=1;align=center;verticalAlign=middle;resizable=0;points=[];autosize=1;strokeColor=none;fillColor=none;" parent="1" vertex="1">
          <mxGeometry x="539" y="340" width="30" height="20" as="geometry" />
        </mxCell>
        <mxCell id="5bnPNRoVC2ySnXRvsU7Y-3" value="Used-by" style="edgeStyle=orthogonalEdgeStyle;rounded=0;orthogonalLoop=1;jettySize=auto;html=1;entryX=0.5;entryY=0;entryDx=0;entryDy=0;endArrow=none;endFill=0;" parent="1" source="5bnPNRoVC2ySnXRvsU7Y-1" target="9fLlZYd4D2RIX8E6NWbn-7" edge="1">
          <mxGeometry relative="1" as="geometry" />
        </mxCell>
        <mxCell id="BFf5g2hm_8gDcVN0dUlp-2" value="Contains" style="edgeStyle=orthogonalEdgeStyle;rounded=0;orthogonalLoop=1;jettySize=auto;html=1;entryX=0;entryY=0.5;entryDx=0;entryDy=0;endArrow=none;endFill=0;" parent="1" source="5bnPNRoVC2ySnXRvsU7Y-1" target="BFf5g2hm_8gDcVN0dUlp-1" edge="1">
          <mxGeometry relative="1" as="geometry" />
        </mxCell>
        <mxCell id="5bnPNRoVC2ySnXRvsU7Y-1" value="ProductCatalog" style="html=1;" parent="1" vertex="1">
          <mxGeometry x="484" y="30" width="110" height="50" as="geometry" />
        </mxCell>
        <mxCell id="5bnPNRoVC2ySnXRvsU7Y-4" value="1" style="text;html=1;align=center;verticalAlign=middle;resizable=0;points=[];autosize=1;strokeColor=none;fillColor=none;" parent="1" vertex="1">
          <mxGeometry x="539" y="80" width="20" height="20" as="geometry" />
        </mxCell>
        <mxCell id="5bnPNRoVC2ySnXRvsU7Y-5" value="*" style="text;html=1;align=center;verticalAlign=middle;resizable=0;points=[];autosize=1;strokeColor=none;fillColor=none;" parent="1" vertex="1">
          <mxGeometry x="539" y="140" width="20" height="20" as="geometry" />
        </mxCell>
        <mxCell id="BFf5g2hm_8gDcVN0dUlp-1" value="ProductSpecification" style="html=1;" parent="1" vertex="1">
          <mxGeometry x="647" y="30" width="110" height="50" as="geometry" />
        </mxCell>
        <mxCell id="BFf5g2hm_8gDcVN0dUlp-3" value="1" style="text;html=1;align=center;verticalAlign=middle;resizable=0;points=[];autosize=1;strokeColor=none;fillColor=none;" parent="1" vertex="1">
          <mxGeometry x="589" y="60" width="20" height="20" as="geometry" />
        </mxCell>
        <mxCell id="BFf5g2hm_8gDcVN0dUlp-4" value="1..*" style="text;html=1;align=center;verticalAlign=middle;resizable=0;points=[];autosize=1;strokeColor=none;fillColor=none;" parent="1" vertex="1">
          <mxGeometry x="617" y="60" width="30" height="20" as="geometry" />
        </mxCell>
      </root>
    </mxGraphModel>
  </diagram>
  <diagram id="RMIJ08kkGLFrQmygRDV2" name="SSD">
    <mxGraphModel dx="734" dy="468" grid="1" gridSize="10" guides="1" tooltips="1" connect="1" arrows="1" fold="1" page="1" pageScale="1" pageWidth="850" pageHeight="1100" math="0" shadow="0">
      <root>
        <mxCell id="0" />
        <mxCell id="1" parent="0" />
        <mxCell id="sLa-sQRtWJhOcg3yCrji-2" value=":System" style="shape=umlLifeline;perimeter=lifelinePerimeter;whiteSpace=wrap;html=1;container=1;collapsible=0;recursiveResize=0;outlineConnect=0;" vertex="1" parent="1">
          <mxGeometry x="410" y="60" width="100" height="390" as="geometry" />
        </mxCell>
        <mxCell id="sLa-sQRtWJhOcg3yCrji-6" value="" style="html=1;points=[];perimeter=orthogonalPerimeter;" vertex="1" parent="sLa-sQRtWJhOcg3yCrji-2">
          <mxGeometry x="45" y="60" width="10" height="40" as="geometry" />
        </mxCell>
        <mxCell id="sLa-sQRtWJhOcg3yCrji-16" value="" style="html=1;points=[];perimeter=orthogonalPerimeter;" vertex="1" parent="sLa-sQRtWJhOcg3yCrji-2">
          <mxGeometry x="45" y="180" width="10" height="80" as="geometry" />
        </mxCell>
        <mxCell id="sLa-sQRtWJhOcg3yCrji-18" value="description, total" style="html=1;verticalAlign=bottom;endArrow=open;dashed=1;endSize=8;rounded=0;" edge="1" parent="sLa-sQRtWJhOcg3yCrji-2" target="sLa-sQRtWJhOcg3yCrji-3">
          <mxGeometry relative="1" as="geometry">
            <mxPoint x="45" y="260" as="sourcePoint" />
            <mxPoint x="-35" y="260" as="targetPoint" />
          </mxGeometry>
        </mxCell>
        <mxCell id="sLa-sQRtWJhOcg3yCrji-3" value="" style="shape=umlLifeline;participant=umlActor;perimeter=lifelinePerimeter;whiteSpace=wrap;html=1;container=1;collapsible=0;recursiveResize=0;verticalAlign=top;spacingTop=36;outlineConnect=0;" vertex="1" parent="1">
          <mxGeometry x="220" y="50" width="35" height="400" as="geometry" />
        </mxCell>
        <mxCell id="sLa-sQRtWJhOcg3yCrji-5" value="" style="html=1;points=[];perimeter=orthogonalPerimeter;" vertex="1" parent="sLa-sQRtWJhOcg3yCrji-3">
          <mxGeometry x="12.5" y="70" width="10" height="210" as="geometry" />
        </mxCell>
        <mxCell id="sLa-sQRtWJhOcg3yCrji-4" value="Cajero" style="text;html=1;align=center;verticalAlign=middle;resizable=0;points=[];autosize=1;strokeColor=none;fillColor=none;" vertex="1" parent="sLa-sQRtWJhOcg3yCrji-3">
          <mxGeometry x="-7.5" y="40" width="50" height="20" as="geometry" />
        </mxCell>
        <mxCell id="sLa-sQRtWJhOcg3yCrji-7" value="makeNewSale()" style="html=1;verticalAlign=bottom;startArrow=oval;endArrow=block;startSize=8;rounded=0;" edge="1" target="sLa-sQRtWJhOcg3yCrji-6" parent="1" source="sLa-sQRtWJhOcg3yCrji-3">
          <mxGeometry relative="1" as="geometry">
            <mxPoint x="390" y="120" as="sourcePoint" />
            <Array as="points">
              <mxPoint x="380" y="120" />
            </Array>
          </mxGeometry>
        </mxCell>
        <mxCell id="sLa-sQRtWJhOcg3yCrji-15" value="enterItem(itemId, quantity)" style="html=1;verticalAlign=bottom;endArrow=block;rounded=0;" edge="1" parent="1" target="sLa-sQRtWJhOcg3yCrji-2">
          <mxGeometry width="80" relative="1" as="geometry">
            <mxPoint x="240" y="240" as="sourcePoint" />
            <mxPoint x="320" y="240" as="targetPoint" />
          </mxGeometry>
        </mxCell>
        <mxCell id="sLa-sQRtWJhOcg3yCrji-19" value="loop" style="shape=umlFrame;whiteSpace=wrap;html=1;" vertex="1" parent="1">
          <mxGeometry x="210" y="190" width="290" height="160" as="geometry" />
        </mxCell>
        <mxCell id="sLa-sQRtWJhOcg3yCrji-20" value="{more items]" style="text;html=1;align=center;verticalAlign=middle;resizable=0;points=[];autosize=1;strokeColor=none;fillColor=none;" vertex="1" parent="1">
          <mxGeometry x="200" y="220" width="80" height="20" as="geometry" />
        </mxCell>
      </root>
    </mxGraphModel>
  </diagram>
</mxfile>
